<svg
    xmlns="http://www.w3.org/2000/svg"
    width="64"
    height="64"
    viewBox="0 0 64 64"
    fill="none"
>
  <!-- Chat bubble -->
  <path
    d="M32 4C17.6406 4 6 14.7452 6 27.5C6 33.7772 9.35938 39.4821 14.625 42.9746C14.2188 46.7746 11.3906 51.0804 6.90625 54.5C6.5625 54.7708 6.54688 55.2902 6.90625 55.5625C7.25 55.8359 7.76562 55.8193 8.09375 55.5625C11.375 52.7589 15.4375 50.375 20.0625 48.6054C23.2812 49.9871 27.0781 50.75 31 50.75C45.3594 50.75 57 40.0048 57 27.25C57 14.4952 45.3594 4 32 4Z"
    fill="#4A90E2"
  />
  <!-- AI dots -->
  <circle cx="24" cy="27" r="3" fill="white" />
  <circle cx="32" cy="27" r="3" fill="white" />
  <circle cx="40" cy="27" r="3" fill="white" />
</svg>
